<svg xmlns="http://www.w3.org/2000/svg" width="32" height="32" viewBox="0 0 256 257"><defs><linearGradient id="a" x1="-.8%" x2="57.6%" y1="7.7%" y2="78.4%"><stop offset="0" stop-color="#41D1FF"/><stop offset="1" stop-color="#BD34FE"/></linearGradient><linearGradient id="b" x1="43.4%" x2="50.3%" y1="2.2%" y2="89%"><stop offset="0" stop-color="#FFEA83"/><stop offset=".1" stop-color="#FFDD35"/><stop offset="1" stop-color="#FFA800"/></linearGradient></defs><path fill="url(#a)" d="M255 38 135 253c-2 4-9 4-11 0L1 38c-3-5 1-11 7-10l120 22a7 7 0 0 0 8-5L259 9c4-12 23-6 20 8Z"/><path fill="url(#b)" d="M185 0 96 18a3 3 0 0 0-3 3l-5 92a3 3 0 0 0 4 4l25-6c2 0 4 2 4 4l-7 36c0 2 2 4 4 4l16-5c2-1 5 1 4 4l-11 43c-1 3 3 4 4 2l52-89c1-3-1-6-3-5l-25 3c-3 0-5-2-4-4l16-111c0-3-2-4-4-4L185 0Z"/></svg>